<svg width="33" height="33" xmlns="http://www.w3.org/2000/svg" xmlns:xlink="http://www.w3.org/1999/xlink" overflow="hidden"><defs><clipPath id="clip0"><rect x="1137" y="25" width="33" height="33"/></clipPath></defs><g clip-path="url(#clip0)" transform="translate(-1137 -25)"><path d="M1147.66 35.6562 1143.88 35.6562 1143.88 33.25 1147.66 33.25 1147.66 35.6562ZM1152.81 33.25 1152.81 35.6562 1149.03 35.6562 1149.03 33.25 1152.81 33.25ZM1157.97 33.25 1157.97 35.6562 1154.19 35.6562 1154.19 33.25 1157.97 33.25ZM1163.12 33.25 1163.12 35.6562 1159.34 35.6562 1159.34 33.25 1163.12 33.25ZM1163.12 39.4375 1159.34 39.4375 1159.34 37.0312 1163.12 37.0312 1163.12 39.4375ZM1163.12 42.3594 1159.34 42.7031 1159.34 40.8125 1163.12 40.8125 1163.12 42.3594ZM1147.66 40.8125 1147.66 43.7344 1143.88 44.0781 1143.88 40.8125 1147.66 40.8125ZM1147.66 39.4375 1143.88 39.4375 1143.88 37.0312 1147.66 37.0312 1147.66 39.4375ZM1152.81 39.4375 1149.03 39.4375 1149.03 37.0312 1152.81 37.0312 1152.81 39.4375ZM1154.19 39.4375 1154.19 37.0312 1157.97 37.0312 1157.97 39.4375 1154.19 39.4375ZM1152.81 43.2875 1149.03 43.6312 1149.03 40.8125 1152.81 40.8125 1152.81 43.2875ZM1154.19 40.8125 1157.97 40.8125 1157.97 42.8063 1154.19 43.15 1154.19 40.8125ZM1165.19 44.25 1165.19 31.1875 1143.88 31.1875 1143.88 30.8438C1143.88 29.125 1142.5 27.75 1140.78 27.75 1140.2 27.75 1139.75 28.1969 1139.75 28.7812 1139.75 29.3656 1140.2 29.8125 1140.78 29.8125 1141.37 29.8125 1141.81 30.2594 1141.81 30.8438L1141.81 48.0312C1141.81 49.75 1143.19 51.125 1144.91 51.125L1145.94 51.125 1161.06 51.125 1164.16 51.125C1164.74 51.125 1165.19 50.6781 1165.19 50.0938 1165.19 49.5094 1164.74 49.0625 1164.16 49.0625L1144.91 49.0625C1144.32 49.0625 1143.88 48.6156 1143.88 48.0312L1143.88 46.1406 1165.19 44.25Z" fill="#188AE8"/><path d="M1148 53.1875C1148 54.3266 1147.08 55.25 1145.94 55.25 1144.8 55.25 1143.88 54.3266 1143.88 53.1875 1143.88 52.0484 1144.8 51.125 1145.94 51.125 1147.08 51.125 1148 52.0484 1148 53.1875Z" fill="#188AE8"/><path d="M1163.12 53.1875C1163.12 54.3266 1162.2 55.25 1161.06 55.25 1159.92 55.25 1159 54.3266 1159 53.1875 1159 52.0484 1159.92 51.125 1161.06 51.125 1162.2 51.125 1163.12 52.0484 1163.12 53.1875Z" fill="#188AE8"/></g></svg>